<svg xmlns="http://www.w3.org/2000/svg" width="1024" height="1024" viewBox="0 0 1024 1024"><title>logo</title><polygon points="512 512 288 416 512 64 736 416 512 512" fill="none" stroke="#fff" stroke-miterlimit="10" stroke-width="4"/><line x1="288" y1="416" x2="512" y2="320" fill="none" stroke="#fff" stroke-miterlimit="10" stroke-width="4"/><line x1="736" y1="416" x2="512" y2="320" fill="none" stroke="#fff" stroke-miterlimit="10" stroke-width="4"/><line x1="512" y1="64" x2="512" y2="512" fill="none" stroke="#fff" stroke-miterlimit="10" stroke-width="4"/><polyline points="512 576 736 480 288 960 288 672 512 576" fill="none" stroke="#fff" stroke-miterlimit="10" stroke-width="4"/><polyline points="512 576 288 480 736 960 736 672 512 576" fill="none" stroke="#fff" stroke-miterlimit="10" stroke-width="4"/><polygon points="512 896 548.95 832 475.05 832 512 896" fill="none" stroke="#fff" stroke-miterlimit="10" stroke-width="4"/><polygon points="564.98 961 585.95 924.67 544 924.67 564.98 961" fill="none" stroke="#fff" stroke-miterlimit="10" stroke-width="4"/></svg>