<svg xmlns="http://www.w3.org/2000/svg" viewBox="0 0 788.17 893.29"><defs><style>.cls-1,.cls-2{fill:#300f02;}.cls-11,.cls-12,.cls-13,.cls-2,.cls-3,.cls-6,.cls-7,.cls-8{stroke:#300f02;stroke-miterlimit:10;}.cls-2{stroke-width:18px;}.cls-3{fill:#a47c4f;}.cls-12,.cls-13,.cls-3,.cls-6,.cls-7{stroke-width:6px;}.cls-4{fill:#c69a66;}.cls-5{fill:#73471b;}.cls-11,.cls-13,.cls-6{fill:none;}.cls-7{fill:#f1d5b5;}.cls-8{fill:#debb9d;}.cls-11,.cls-8{stroke-width:7.59px;}.cls-9{fill:#d49563;}.cls-10{fill:#eacaac;}.cls-12{fill:#91765c;}.cls-13{stroke-linecap:round;}</style></defs><g id="Logotipo"><path class="cls-1" d="M162.1,698.35a2,2,0,0,1-1.42.54h-54.9c-.56,0-.84.25-.84.76v23.56c0,.5.28.76.84.76h36a2,2,0,0,1,1.42.53,1.67,1.67,0,0,1,.59,1.29v14.74a1.71,1.71,0,0,1-.59,1.3,2.07,2.07,0,0,1-1.42.53h-36c-.56,0-.84.25-.84.76v24.62c0,.51.28.76.84.76h54.9a2,2,0,0,1,1.42.53,1.71,1.71,0,0,1,.59,1.3v14.74a1.67,1.67,0,0,1-.59,1.29,2,2,0,0,1-1.42.53H83.35a2,2,0,0,1-1.42-.53,1.67,1.67,0,0,1-.59-1.29V682.32a1.67,1.67,0,0,1,.59-1.29,2,2,0,0,1,1.42-.54h77.33a2,2,0,0,1,1.42.54,1.67,1.67,0,0,1,.59,1.29v14.74A1.67,1.67,0,0,1,162.1,698.35Z"/><path class="cls-1" d="M257.76,785.53l-20.92-42.11a1.1,1.1,0,0,0-1-.61H220.27c-.56,0-.84.26-.84.76v41.5a1.67,1.67,0,0,1-.59,1.29,2,2,0,0,1-1.42.53H197.84a2,2,0,0,1-1.42-.53,1.64,1.64,0,0,1-.59-1.29V682.32a1.64,1.64,0,0,1,.59-1.29,2,2,0,0,1,1.42-.54h47.87a42.48,42.48,0,0,1,18.83,4,29.32,29.32,0,0,1,12.55,11.24,31.83,31.83,0,0,1,4.44,16.88,28.11,28.11,0,0,1-5.69,17.7q-5.7,7.38-15.9,10.42c-.56.2-.73.55-.51,1.06l22.77,43a2.19,2.19,0,0,1,.33.91c0,.81-.61,1.21-1.84,1.21H260.1A2.38,2.38,0,0,1,257.76,785.53Zm-38.33-85.88v26c0,.51.28.76.84.76h21.92q7,0,11.47-3.8a12.41,12.41,0,0,0,4.43-9.88,12.66,12.66,0,0,0-4.43-10q-4.44-3.87-11.47-3.87H220.27C219.71,698.89,219.43,699.14,219.43,699.65Z"/><path class="cls-1" d="M315.92,786.36a1.66,1.66,0,0,1-.58-1.29V682.32a1.66,1.66,0,0,1,.58-1.29,2,2,0,0,1,1.42-.54h19.59a2,2,0,0,1,1.42.54,1.67,1.67,0,0,1,.59,1.29V785.07a1.67,1.67,0,0,1-.59,1.29,2,2,0,0,1-1.42.53H317.34A2,2,0,0,1,315.92,786.36Z"/><path class="cls-1" d="M394.5,783.4a36.33,36.33,0,0,1-15.31-13.15,35.19,35.19,0,0,1-5.44-19.53V716.67a34.82,34.82,0,0,1,20.75-32.76,58.07,58.07,0,0,1,45.28-.07A37.18,37.18,0,0,1,455,696.23a29.86,29.86,0,0,1,5.44,17.4v1.06a1.71,1.71,0,0,1-.59,1.3,2,2,0,0,1-1.42.53H438.86a2,2,0,0,1-1.42-.53,1.67,1.67,0,0,1-.59-1.3v-.45a15.19,15.19,0,0,0-5.36-11.78q-5.36-4.79-14.22-4.79-9,0-14.48,5.09a17.38,17.38,0,0,0-5.44,13.3v35.27a16.78,16.78,0,0,0,5.86,13.3q5.85,5.08,14.89,5.09,8.7,0,13.89-4.18t5.19-11.63v-6.84c0-.51-.28-.76-.83-.76H417.6a2,2,0,0,1-1.42-.53,1.67,1.67,0,0,1-.59-1.29v-14a1.67,1.67,0,0,1,.59-1.29,2,2,0,0,1,1.42-.53h40.84a2,2,0,0,1,1.42.53,1.7,1.7,0,0,1,.59,1.29v20.07a36.87,36.87,0,0,1-5.36,20.06,34.2,34.2,0,0,1-15.15,13,53.89,53.89,0,0,1-22.67,4.48A52.32,52.32,0,0,1,394.5,783.4Z"/><path class="cls-1" d="M513.93,783.7a36.11,36.11,0,0,1-21-33.74V717.43a36.23,36.23,0,0,1,5.52-19.91,36.78,36.78,0,0,1,15.49-13.45,52.37,52.37,0,0,1,23-4.79q13.21,0,23.18,4.79a36.69,36.69,0,0,1,15.48,13.45,36.15,36.15,0,0,1,5.53,19.91V750a37.17,37.17,0,0,1-5.53,20.21,36.37,36.37,0,0,1-15.48,13.61q-10,4.79-23.18,4.79A51.82,51.82,0,0,1,513.93,783.7Zm37.91-18.85q5.68-5.31,5.69-14.13V717.28q0-8.82-5.61-14.21t-15-5.4q-9.21,0-14.81,5.4t-5.61,14.21v33.44q0,8.82,5.61,14.13t14.81,5.32Q546.15,770.17,551.84,764.85Z"/><path class="cls-1" d="M683.81,681a2,2,0,0,1,1.42-.54h19.59a2,2,0,0,1,1.42.54,1.66,1.66,0,0,1,.58,1.29V785.07a1.66,1.66,0,0,1-.58,1.29,2,2,0,0,1-1.42.53H685.9a2.44,2.44,0,0,1-2.34-1.21l-43.35-65.06c-.23-.3-.45-.43-.67-.38s-.34.28-.34.69l.34,64.14a1.67,1.67,0,0,1-.59,1.29,2,2,0,0,1-1.42.53H618a2,2,0,0,1-1.43-.53,1.66,1.66,0,0,1-.58-1.29V682.32a1.66,1.66,0,0,1,.58-1.29,2,2,0,0,1,1.43-.54h18.91a2.43,2.43,0,0,1,2.34,1.22l43.19,64.75c.22.31.44.43.67.38s.33-.28.33-.68l-.17-63.84A1.67,1.67,0,0,1,683.81,681Z"/></g><g id="cotorno"><path class="cls-2" d="M522.44,567a16.44,16.44,0,0,0,15-17.07h0a16.44,16.44,0,0,0-17.13-15.74h0s-91.27,12.5-136.83-44h0l-57.95,11.75h0S385.72,579.52,522.44,567Z"/><path class="cls-2" d="M364.52,505.59c70.49,0,123.94-56.89,112.12-119.21a676.77,676.77,0,0,0-23.37-89.23c-5.34-15.91-9.12-37.82-9.12-68H284.89c0,30.16-3.78,52.07-9.12,68a676.82,676.82,0,0,0-23.38,89.23C240.58,448.7,294,505.59,364.52,505.59Z"/><path class="cls-2" d="M299.69,139.59l-7.47-3.82a17.92,17.92,0,1,0-16.32,31.9l7.87,4Z"/><path class="cls-2" d="M429.34,137.6l7.48-3.82a17.92,17.92,0,1,1,16.32,31.9l-7.88,4Z"/><path class="cls-2" d="M448.32,176.2c-1.81-32.9-38.64-59.17-83.8-59.17s-82,26.27-83.8,59.17c-8.45,8-13.29,17.3-13.29,27.23,0,29.76,43.47,53.88,97.09,53.88s97.08-24.12,97.08-53.88C461.6,193.5,456.76,184.19,448.32,176.2Z"/></g><g id="coda"><path class="cls-3" d="M522.44,567a16.44,16.44,0,0,0,15-17.07h0a16.44,16.44,0,0,0-17.13-15.74h0s-91.27,12.5-136.83-44h0l-57.95,11.75h0S385.72,579.52,522.44,567Z"/></g><g id="riflessi_coda"><path class="cls-4" d="M520,537.29s-94,11.4-139.57-45.12h0l-11.85,2.4c54.12,53.06,145.95,46.64,145.95,46.64h0c9.69.23,17.46,5.08,18.91,14.33a14.41,14.41,0,0,0,1-3.61l0-.71A13.6,13.6,0,0,0,520,537.29Z"/><path class="cls-5" d="M522,559.82c-117.56,10.81-178.28-45.64-192.61-61.19l-5.35,1.09h0s61.39,77.14,197.44,64.64c7.25-.67,12.29-5.74,12.83-11.88A15.45,15.45,0,0,1,522,559.82Z"/></g><g id="outlinee_coda"><path class="cls-6" d="M522.44,567a16.44,16.44,0,0,0,15-17.07h0a16.44,16.44,0,0,0-17.13-15.74h0s-91.27,12.5-136.83-44h0l-57.95,11.75h0S385.72,579.52,522.44,567Z"/></g><g id="Body"><path class="cls-3" d="M364.52,505.59c70.49,0,123.94-56.89,112.12-119.21a676.77,676.77,0,0,0-23.37-89.23c-5.34-15.91-9.12-37.82-9.12-68H284.89c0,30.16-3.78,52.07-9.12,68a676.82,676.82,0,0,0-23.38,89.23C240.58,448.7,294,505.59,364.52,505.59Z"/></g><g id="Testa"><path class="cls-7" d="M299.69,139.59l-7.47-3.82a17.92,17.92,0,1,0-16.32,31.9l7.87,4Z"/><path class="cls-7" d="M429.34,137.6l7.48-3.82a17.92,17.92,0,1,1,16.32,31.9l-7.88,4Z"/><path class="cls-3" d="M448.32,176.2c-1.81-32.9-38.64-59.17-83.8-59.17s-82,26.27-83.8,59.17c-8.45,8-13.29,17.3-13.29,27.23,0,29.76,43.47,53.88,97.09,53.88s97.08-24.12,97.08-53.88C461.6,193.5,456.76,184.19,448.32,176.2Z"/><path class="cls-4" d="M364.52,262.64c27.47,0,52.08-6.77,68.75-17.46-.51-5.73-.84-8.91-.94-15.6-14.93,11.88-39.73,19.66-67.81,19.66s-52.89-7.78-67.82-19.66c-.1,6.69-.43,9.87-.94,15.6C312.43,255.87,337.05,262.64,364.52,262.64Z"/></g><g id="riflesso_testa"><path class="cls-5" d="M364.52,244.26c-46.65,0-85.61-18.26-94.95-42.6h-2.14c0,29.76,43.47,53.88,97.09,53.88s97.08-24.12,97.08-53.88h-2.14C450.12,226,411.16,244.26,364.52,244.26Z"/><path class="cls-4" d="M363.63,126.9c35,0,65.42,14.35,81.05,35.47-10.53-25.23-42.42-43.57-80.16-43.57-35.07,0-65.09,15.84-77.62,38.32C303.44,138.9,331.62,126.9,363.63,126.9Z"/></g><g id="outlinee_testa"><path class="cls-6" d="M448.32,176.2c-1.81-32.9-38.64-59.17-83.8-59.17s-82,26.27-83.8,59.17c-8.45,8-13.29,17.3-13.29,27.23,0,29.76,43.47,53.88,97.09,53.88s97.08-24.12,97.08-53.88C461.6,193.5,456.76,184.19,448.32,176.2Z"/></g><g id="Pancia"><path class="cls-8" d="M414.52,499.62c0-24.88,2.35-43,5.67-56.08a712.67,712.67,0,0,0,14.52-73.62c7.34-51.42-25.86-98.36-69.65-98.36h0c-43.8,0-77,46.94-69.66,98.36a712.67,712.67,0,0,0,14.52,73.62c3.32,13.12,5.67,31.2,5.67,56.08C315.59,499.62,359.31,511.34,414.52,499.62Z"/></g><g id="riflesso_pancia"><path class="cls-9" d="M365.54,289.74h0c33.12,0,60.47,25.57,70.3,60.05-3.61-41.65-33.14-75.45-70.3-75.45h0c-37.16,0-66.68,33.8-70.29,75.45C305.08,315.31,332.42,289.74,365.54,289.74Z"/><path class="cls-10" d="M315.16,485.65c.28,5.43.43,4.27.43,10.53,0,0,43.72,11.73,98.93,0,0-6.29.15-5.15.43-10.6C365.09,495.72,324.54,487.8,315.16,485.65Z"/></g><g id="outlinee_pancia"><path class="cls-11" d="M414.52,499.62c0-24.88,2.35-43,5.67-56.08a712.67,712.67,0,0,0,14.52-73.62c7.34-51.42-25.86-98.36-69.65-98.36h0c-43.8,0-77,46.94-69.66,98.36a712.67,712.67,0,0,0,14.52,73.62c3.32,13.12,5.67,31.2,5.67,56.08C315.59,499.62,359.31,511.34,414.52,499.62Z"/></g><g id="Zampe_up"><ellipse class="cls-12" cx="424.99" cy="346.17" rx="18.82" ry="27.33"/><ellipse class="cls-12" cx="305.13" cy="346.17" rx="18.82" ry="27.33"/></g><g id="Zampe_down"><path class="cls-12" d="M467.73,444.53h0a15.33,15.33,0,0,0-8.08-19.69l-.34-.14a12.06,12.06,0,0,1-6.54-6.38,15,15,0,0,0-18.9-8,10.89,10.89,0,0,1-8.47-.5l-.78-.35a15.19,15.19,0,0,0-16.11,3.08,15.71,15.71,0,0,0-4.13,6.58l-.05.15a18,18,0,0,0-.66,2.28c-3.74,20.29-13.89,56.23-13.89,56.23-.72,2.88-1.79,5.67-2.36,8.59-4.49,23.15,24.81,9.93,25.63,9.53h0c23.8-10.43,43-28.24,53.93-49.64Z"/><path class="cls-12" d="M263.13,446.3c10.91,21.4,30.13,39.21,53.93,49.64h0c.82.4,30.13,13.62,25.63-9.53-.56-2.92-1.64-5.71-2.36-8.59,0,0-10.15-35.94-13.89-56.23a16.49,16.49,0,0,0-.66-2.28l0-.15a15.61,15.61,0,0,0-4.13-6.58,15.19,15.19,0,0,0-16.11-3.08l-.78.35a10.87,10.87,0,0,1-8.46.5,15.05,15.05,0,0,0-18.91,8,12,12,0,0,1-6.54,6.38l-.34.14a15.33,15.33,0,0,0-8.08,19.69h0s0,0,0,0h0Z"/></g><g id="riflesso_zampe"><path class="cls-4" d="M340.2,488.66c-.41-1.73-.81-3.44-1.34-5.16,0,0-.21-.68-.29-.9-1.86,11-24.67,3.38-25.38,3.1a127,127,0,0,1-24.9-11.81c8.16,8.6,20.51,16.21,33.57,20.84C322.46,495,343.5,502.43,340.2,488.66Z"/><path class="cls-4" d="M390,488.66c.41-1.73.81-3.44,1.34-5.16l.29-.9c1.86,11,24.68,3.38,25.38,3.1a126.73,126.73,0,0,0,24.9-11.81c-8.15,8.6-20.51,16.21-33.56,20.84C407.7,495,386.65,502.43,390,488.66Z"/><path class="cls-4" d="M305.34,363c-7.75,0-14.5-7.76-15.77-18.09a30.25,30.25,0,0,0-.23,3.73c0,12.1,7.34,21.82,16,21.82s15.76-9.77,15.76-21.88a30.49,30.49,0,0,0-.23-3.73C319.6,355.19,313.1,363,305.34,363Z"/><path class="cls-4" d="M425.12,363c-7.75,0-14.5-7.76-15.77-18.09a30.25,30.25,0,0,0-.23,3.73c0,12.1,7.34,21.82,16,21.82s15.76-9.77,15.76-21.88a30.49,30.49,0,0,0-.23-3.73C439.38,355.19,432.88,363,425.12,363Z"/></g><g id="outlinee_zampa"><ellipse class="cls-6" cx="424.99" cy="346.17" rx="18.82" ry="27.33"/><ellipse class="cls-6" cx="305.13" cy="346.17" rx="18.82" ry="27.33"/><path class="cls-6" d="M467.73,444.53h0a15.33,15.33,0,0,0-8.08-19.69l-.34-.14a12.06,12.06,0,0,1-6.54-6.38,15,15,0,0,0-18.9-8,10.89,10.89,0,0,1-8.47-.5l-.78-.35a15.19,15.19,0,0,0-16.11,3.08,15.71,15.71,0,0,0-4.13,6.58l-.05.15a18,18,0,0,0-.66,2.28c-3.74,20.29-13.89,56.23-13.89,56.23-.72,2.88-1.79,5.67-2.36,8.59-4.49,23.15,24.81,9.93,25.63,9.53h0c23.8-10.43,43-28.24,53.93-49.64Z"/><path class="cls-6" d="M263.13,446.3c10.91,21.4,30.13,39.21,53.93,49.64h0c.82.4,30.13,13.62,25.63-9.53-.56-2.92-1.64-5.71-2.36-8.59,0,0-10.15-35.94-13.89-56.23a16.49,16.49,0,0,0-.66-2.28l0-.15a15.61,15.61,0,0,0-4.13-6.58,15.19,15.19,0,0,0-16.11-3.08l-.78.35a10.87,10.87,0,0,1-8.46.5,15.05,15.05,0,0,0-18.91,8,12,12,0,0,1-6.54,6.38l-.34.14a15.33,15.33,0,0,0-8.08,19.69h0s0,0,0,0h0Z"/></g><g id="Occhi"><ellipse class="cls-1" cx="318.55" cy="166.57" rx="8.91" ry="14.19"/><ellipse class="cls-1" cx="405.89" cy="166.57" rx="8.91" ry="14.19"/></g><g id="Muso"><path class="cls-7" d="M402.43,251.22V213a38.23,38.23,0,0,0-38.23-38.22h0A38.22,38.22,0,0,0,326,213v38.23S362.26,263.31,402.43,251.22Z"/></g><g id="RIFLESSI_MUSO"><path class="cls-9" d="M375.77,221.09a11.24,11.24,0,0,1-9.28-4.88h-2a11.29,11.29,0,1,0,22.57,0h-2A11.26,11.26,0,0,1,375.77,221.09Z"/><path class="cls-9" d="M353.2,221.09a11.27,11.27,0,0,1-9.29-4.88h-2a11.29,11.29,0,0,0,22.58,0h-2A11.24,11.24,0,0,1,353.2,221.09Z"/></g><g id="Naso_bocca"><path class="cls-1" d="M364.62,194h3.59a7.94,7.94,0,0,1,7.73,9.75h0a7.93,7.93,0,0,1-1.89,3.57l-3.68,4a7.93,7.93,0,0,1-11.6.08l-3.77-4a8,8,0,0,1-2-3.87v0a7.94,7.94,0,0,1,7.78-9.54Z"/><path class="cls-13" d="M387.06,218a11.29,11.29,0,1,1-22.57,0"/><path class="cls-13" d="M341.91,218a11.29,11.29,0,0,0,22.58,0v-4.1"/><path class="cls-13" d="M374.27,231.1a9.67,9.67,0,1,1-19.33,0"/></g><g id="Baffi"><path class="cls-1" d="M423.25,215.85a127.09,127.09,0,0,1,23.92-2.17,181.88,181.88,0,0,1,24,1.37c2,.22,4,.51,6,.82s4,.59,5.93,1c3.93.83,7.88,1.53,11.75,2.62a144.6,144.6,0,0,1,22.73,7.74c-7.91-1.38-15.64-3-23.47-4.29s-15.61-2.42-23.45-3.4-15.69-1.73-23.58-2.34S431.25,216.14,423.25,215.85Z"/><path class="cls-1" d="M416.11,224.14c3.62.16,7.22.51,10.8,1,1.8.22,3.59.49,5.38.74l5.36.87c7.12,1.31,14.18,3,21.16,5,3.51,1,7,2.12,10.43,3.23,1.73.58,3.42,1.28,5.11,2l2.52,1.07c.82.38,1.63.81,2.45,1.21l4.84,2.56c1.56,1,3.12,1.9,4.65,2.91.76.5,1.53,1,2.28,1.5l2.19,1.66c1.43,1.14,2.86,2.26,4.23,3.48a.23.23,0,0,1-.24.38h0c-6.8-2.68-13.16-5.8-19.81-8.38s-13-5.79-19.75-8.14a210.49,210.49,0,0,0-20.53-6.26,203.7,203.7,0,0,0-21.09-4.33h0a.23.23,0,0,1-.19-.26A.23.23,0,0,1,416.11,224.14Z"/><path class="cls-1" d="M424.59,206.17a183.14,183.14,0,0,1,23.91-4.85c8.06-1.09,16.19-1.83,24.34-2.23s16.33-.83,24.47.08a129,129,0,0,1,24.08,4.42.24.24,0,0,1,.16.28.25.25,0,0,1-.21.17h0c-4.11.17-8.16,0-12.2-.08-2,0-4-.09-6.06-.13s-4-.13-6-.16-4-.14-6-.24-4-.16-6-.28-4-.24-6-.29-4-.15-6-.15q-12.09-.11-24.17.85a204.85,204.85,0,0,0-24,3h0a.22.22,0,0,1-.1-.43Z"/><path class="cls-1" d="M305.78,215.85c-8,.29-15.9.75-23.8,1.34s-15.75,1.36-23.58,2.34-15.66,2-23.45,3.4-15.56,2.91-23.47,4.29a144.37,144.37,0,0,1,22.74-7.74c3.86-1.09,7.81-1.79,11.74-2.62,2-.4,4-.65,5.94-1s4-.6,6-.82a181.78,181.78,0,0,1,24-1.37A126.91,126.91,0,0,1,305.78,215.85Z"/><path class="cls-1" d="M313,224.59a203.88,203.88,0,0,0-21.1,4.33,211.14,211.14,0,0,0-20.52,6.26c-6.75,2.35-13.16,5.49-19.75,8.14s-13,5.7-19.82,8.38h0a.23.23,0,0,1-.23-.38c1.36-1.22,2.79-2.34,4.23-3.48l2.18-1.66c.75-.52,1.52-1,2.29-1.5,1.52-1,3.09-1.94,4.64-2.91l4.84-2.56c.82-.4,1.63-.83,2.46-1.21l2.51-1.07c1.69-.68,3.38-1.38,5.11-2,3.48-1.11,6.92-2.26,10.43-3.23,7-2,14-3.72,21.16-5l5.36-.87c1.8-.25,3.58-.52,5.38-.74,3.59-.45,7.18-.8,10.8-1a.23.23,0,0,1,.24.21.24.24,0,0,1-.19.24Z"/><path class="cls-1" d="M304.33,206.6a205,205,0,0,0-24-3q-12.07-.94-24.18-.85c-2,0-4,.1-6,.15s-4,.14-6,.29-4,.22-6,.28-4,.18-6,.24-4,.05-6,.16-4,.13-6.06.13c-4,.07-8.08.25-12.19.08h0a.23.23,0,0,1-.06-.45,129,129,0,0,1,24.09-4.42c8.13-.91,16.33-.36,24.47-.08s16.27,1.14,24.34,2.23a183.47,183.47,0,0,1,23.91,4.85.21.21,0,0,1,.15.27.21.21,0,0,1-.26.16Z"/></g></svg>