<svg xmlns="http://www.w3.org/2000/svg" viewBox="0 0 788.17 319.2"><defs><style>.cls-1{fill:#300f02;}</style></defs><g id="Logotipo"><path class="cls-1" d="M162.1,124.26a2,2,0,0,1-1.42.53h-54.9c-.56,0-.84.26-.84.76v23.56c0,.51.28.76.84.76h36a2.07,2.07,0,0,1,1.42.53,1.71,1.71,0,0,1,.59,1.3v14.74a1.67,1.67,0,0,1-.59,1.29,2,2,0,0,1-1.42.53h-36c-.56,0-.84.26-.84.76v24.63c0,.51.28.76.84.76h54.9a2,2,0,0,1,1.42.53,1.7,1.7,0,0,1,.59,1.29V211a1.67,1.67,0,0,1-.59,1.29,2,2,0,0,1-1.42.53H83.35a2,2,0,0,1-1.42-.53,1.67,1.67,0,0,1-.59-1.29V108.22a1.7,1.7,0,0,1,.59-1.29,2,2,0,0,1,1.42-.53h77.33a2,2,0,0,1,1.42.53,1.7,1.7,0,0,1,.59,1.29V123A1.67,1.67,0,0,1,162.1,124.26Z"/><path class="cls-1" d="M257.76,211.43l-20.92-42.1a1.09,1.09,0,0,0-1-.61H220.27c-.56,0-.84.25-.84.76V211a1.67,1.67,0,0,1-.59,1.29,2,2,0,0,1-1.42.53H197.84a2,2,0,0,1-1.42-.53,1.64,1.64,0,0,1-.59-1.29V108.22a1.67,1.67,0,0,1,.59-1.29,2,2,0,0,1,1.42-.53h47.87a42.62,42.62,0,0,1,18.83,3.95,29.4,29.4,0,0,1,12.55,11.25,31.8,31.8,0,0,1,4.44,16.87,28.12,28.12,0,0,1-5.69,17.71q-5.7,7.38-15.9,10.41c-.56.21-.73.56-.51,1.07l22.77,43a2.23,2.23,0,0,1,.33.91c0,.82-.61,1.22-1.84,1.22H260.1A2.39,2.39,0,0,1,257.76,211.43Zm-38.33-85.88v26c0,.51.28.76.84.76h21.92q7,0,11.47-3.8a12.4,12.4,0,0,0,4.43-9.88,12.62,12.62,0,0,0-4.43-10q-4.44-3.88-11.47-3.88H220.27C219.71,124.79,219.43,125.05,219.43,125.55Z"/><path class="cls-1" d="M315.92,212.27a1.66,1.66,0,0,1-.58-1.29V108.22a1.69,1.69,0,0,1,.58-1.29,2.07,2.07,0,0,1,1.42-.53h19.59a2.07,2.07,0,0,1,1.42.53,1.7,1.7,0,0,1,.59,1.29V211a1.67,1.67,0,0,1-.59,1.29,2.07,2.07,0,0,1-1.42.53H317.34A2.07,2.07,0,0,1,315.92,212.27Z"/><path class="cls-1" d="M394.5,209.3a36.24,36.24,0,0,1-15.31-13.14,35.25,35.25,0,0,1-5.44-19.54v-34a34.82,34.82,0,0,1,20.75-32.76,58,58,0,0,1,45.28-.07A37.23,37.23,0,0,1,455,122.13a29.87,29.87,0,0,1,5.44,17.41v1.06a1.67,1.67,0,0,1-.59,1.29,2,2,0,0,1-1.42.53H438.86a2,2,0,0,1-1.42-.53,1.64,1.64,0,0,1-.59-1.29v-.46a15.19,15.19,0,0,0-5.36-11.77q-5.36-4.8-14.22-4.79-9,0-14.48,5.09a17.38,17.38,0,0,0-5.44,13.3v35.26a16.75,16.75,0,0,0,5.86,13.3q5.85,5.1,14.89,5.09,8.7,0,13.89-4.18t5.19-11.62V173c0-.51-.28-.76-.83-.76H417.6a2,2,0,0,1-1.42-.54,1.64,1.64,0,0,1-.59-1.29v-14a1.64,1.64,0,0,1,.59-1.29,2,2,0,0,1,1.42-.54h40.84a2,2,0,0,1,1.42.54,1.67,1.67,0,0,1,.59,1.29v20.06a36.93,36.93,0,0,1-5.36,20.07,34.24,34.24,0,0,1-15.15,13A53.89,53.89,0,0,1,417.27,214,52.17,52.17,0,0,1,394.5,209.3Z"/><path class="cls-1" d="M513.93,209.61a36.14,36.14,0,0,1-21-33.74V143.34a36.29,36.29,0,0,1,5.52-19.92A36.92,36.92,0,0,1,513.93,110a52.51,52.51,0,0,1,23-4.79q13.21,0,23.18,4.79a36.83,36.83,0,0,1,15.48,13.45,36.21,36.21,0,0,1,5.53,19.92v32.53a37.2,37.2,0,0,1-5.53,20.21,36.35,36.35,0,0,1-15.48,13.6q-10,4.8-23.18,4.79A51.82,51.82,0,0,1,513.93,209.61Zm37.91-18.85q5.68-5.32,5.69-14.14V143.18q0-8.81-5.61-14.21t-15-5.39q-9.21,0-14.81,5.39t-5.61,14.21v33.44q0,8.82,5.61,14.14t14.81,5.32Q546.15,196.08,551.84,190.76Z"/><path class="cls-1" d="M683.81,106.93a2,2,0,0,1,1.42-.53h19.59a2.07,2.07,0,0,1,1.42.53,1.69,1.69,0,0,1,.58,1.29V211a1.66,1.66,0,0,1-.58,1.29,2.07,2.07,0,0,1-1.42.53H685.9a2.43,2.43,0,0,1-2.34-1.22l-43.35-65.05c-.23-.31-.45-.43-.67-.38s-.34.28-.34.68l.34,64.15a1.67,1.67,0,0,1-.59,1.29,2,2,0,0,1-1.42.53H618a2.07,2.07,0,0,1-1.43-.53,1.66,1.66,0,0,1-.58-1.29V108.22a1.69,1.69,0,0,1,.58-1.29,2.07,2.07,0,0,1,1.43-.53h18.91a2.43,2.43,0,0,1,2.34,1.22l43.19,64.75c.22.3.44.43.67.38s.33-.28.33-.69l-.17-63.84A1.7,1.7,0,0,1,683.81,106.93Z"/></g></svg>